<svg height="13.135" viewBox="0 0 13.077 13.135" width="13.077" xmlns="http://www.w3.org/2000/svg" xmlns:xlink="http://www.w3.org/1999/xlink"><clipPath id="a"><path d="m0 0h13.077v13.135h-13.077z"/></clipPath><g clip-path="url(#a)"><path d="m13.071 8.816-.024-.531-4.147-.585-.843 1.64a10.636 10.636 0 0 1 -2.411-1.851 10.384 10.384 0 0 1 -1.867-2.423l1.787-.895-1.787-4.171-.486.071a3.768 3.768 0 0 0 -2.171 1.083c-2.03 2.03-1.235 6.006 1.809 9.046a9.125 9.125 0 0 0 6.11 2.931 4.034 4.034 0 0 0 2.937-1.123 4.1 4.1 0 0 0 1.092-3.195m-2 2.291c-1.47 1.473-4.782.645-7.233-1.804s-3.282-5.77-1.81-7.24a2.5 2.5 0 0 1 .979-.613l.908 2.12-.706.353a1.284 1.284 0 0 0 -.557 1.754 11.71 11.71 0 0 0 2.089 2.718 11.887 11.887 0 0 0 2.706 2.074 1.32 1.32 0 0 0 1.012.1 1.271 1.271 0 0 0 .757-.646l.415-.828 2.154.309a2.666 2.666 0 0 1 -.71 1.707" fill="#008755"/></g></svg>